<svg width="120" height="120" viewBox="0 0 120 120" fill="none" xmlns="http://www.w3.org/2000/svg">
<path d="M116.229 83.3589C114.978 89.2121 113.248 94.9947 111.043 100.662C110.595 101.822 110.122 102.976 109.633 104.122C107.037 110.203 104.563 114.64 102.972 117.253C101.933 118.96 100.079 119.999 98.0805 119.999H21.9195C19.921 119.999 18.0661 118.96 17.0271 117.253C15.4364 114.639 12.9623 110.203 10.3662 104.122C9.87704 102.976 9.40479 101.821 8.95647 100.662C6.75168 94.9947 5.02152 89.2121 3.7709 83.3589C0.467155 67.9419 0.467155 52.0576 3.7709 36.6407C5.02152 30.7877 6.75144 25.0047 8.95647 19.3371C9.40458 18.1781 9.87704 17.0238 10.3662 15.877C12.9623 9.79659 15.4364 5.35991 17.0271 2.74664C18.0663 1.03921 19.921 0 21.9195 0H98.0805C100.079 0 101.933 1.03921 102.972 2.7464C104.563 5.35991 107.037 9.79659 109.633 15.8768C110.122 17.0238 110.595 18.1781 111.043 19.3369C113.248 25.0045 114.978 30.7874 116.229 36.6405C119.532 52.0576 119.532 67.9421 116.229 83.3589Z" fill="#9A3F21"/>
<path d="M116.229 83.3589C114.978 89.2121 113.248 94.9947 111.044 100.662C110.595 101.822 110.123 102.976 109.634 104.122C107.037 110.202 104.564 114.641 102.974 117.252C101.933 118.961 100.079 119.999 98.0797 119.999H90.2825C92.28 119.999 94.1355 118.961 95.1737 117.252C96.7638 114.64 99.2386 110.202 101.834 104.122C102.323 102.976 102.795 101.821 103.244 100.662C105.448 94.9947 107.178 89.2121 108.429 83.3589C111.733 67.9419 111.733 52.0576 108.429 36.6409C107.178 30.7879 105.448 25.005 103.244 19.3373C102.795 18.1784 102.323 17.024 101.834 15.8772C99.2386 9.79776 96.7638 5.35897 95.1737 2.7471C94.1355 1.03851 92.28 0 90.2825 0H98.0797C100.079 0 101.933 1.03851 102.974 2.74687C104.564 5.35897 107.037 9.79735 109.634 15.877C110.123 17.024 110.595 18.1784 111.044 19.3371C113.248 25.0047 114.978 30.7877 116.229 36.6407C119.532 52.0576 119.532 67.9421 116.229 83.3589Z" fill="#8C331B"/>
<path d="M116.229 36.6411H3.77148C5.02211 30.788 6.75202 25.005 8.95705 19.3374H111.044C113.248 25.0048 114.978 30.788 116.229 36.6411Z" fill="#FFD800"/>
<path d="M116.229 83.3589C114.978 89.2121 113.248 94.9948 111.044 100.662H8.95705C6.75226 94.9948 5.02211 89.2121 3.77148 83.3589H116.229Z" fill="#FFD800"/>
<path d="M116.229 36.6411H108.429C107.179 30.788 105.448 25.005 103.244 19.3374H111.044C113.248 25.0048 114.979 30.788 116.229 36.6411Z" fill="#E8C207"/>
<path d="M116.229 83.3589C114.979 89.2121 113.248 94.9948 111.044 100.662H103.244C105.448 94.9948 107.179 89.2121 108.429 83.3589H116.229Z" fill="#E8C207"/>
<path d="M116.229 83.3589C114.979 89.2121 113.248 94.9948 111.044 100.662H103.244C105.448 94.9948 107.179 89.2121 108.429 83.3589H116.229Z" fill="#E8C207"/>
<path d="M108.429 36.6411C107.179 30.788 105.448 25.005 103.244 19.3374H111.044C113.248 25.005 114.979 30.788 116.229 36.6411H108.429Z" fill="#E8C207"/>
<path d="M40.3025 119.999H35.9951C34.3365 117.304 31.6709 112.58 28.8558 105.986C22.5812 91.2926 19.3988 75.8215 19.3988 59.9999C19.3988 44.1784 22.5809 28.7074 28.8558 14.0135C31.6712 7.4201 34.3365 2.69486 35.9951 0.000488281H40.2999C39.2255 1.59892 35.8116 6.94661 32.1851 15.4355C26.1034 29.6777 23.0201 44.6708 23.0201 59.9996C23.0201 75.3284 26.1034 90.3216 32.1851 104.564C35.8119 113.055 39.2281 118.406 40.3025 119.999Z" fill="#7C301C"/>
<path d="M100.613 59.9999C100.613 75.8215 97.4311 91.2925 91.1561 105.986C88.3406 112.58 85.6752 117.305 84.0164 119.999H79.7095C80.784 118.406 84.2002 113.056 87.8263 104.565C93.9079 90.3223 96.9915 75.3291 96.9915 60.0002C96.9915 44.6714 93.9086 29.6782 87.8263 15.4359C84.2002 6.94482 80.784 1.59449 79.7095 0.000976562H84.0164C85.6752 2.69534 88.3406 7.42036 91.1561 14.014C97.4311 28.7074 100.613 44.1785 100.613 59.9999Z" fill="#7C301C"/>
<path d="M61.8172 0.000732422H58.1957V120H61.8172V0.000732422Z" fill="#7C301C"/>
<path d="M116.346 36.595H3.66748C4.92045 30.7307 6.65388 24.9363 8.86335 19.2573H111.15C113.359 24.936 115.092 30.7307 116.346 36.595Z" fill="#EABC78"/>
<path d="M116.345 83.4048C115.092 89.269 113.359 95.0633 111.149 100.742H8.8626C6.65362 95.0633 4.91995 89.269 3.66675 83.4048H116.345Z" fill="#EABC78"/>
</svg>
