<svg width="120" height="120" viewBox="0 0 120 120" fill="none" xmlns="http://www.w3.org/2000/svg">
<g clip-path="url(#clip0)">
<path d="M105.815 117.472C113.65 117.472 120 111.121 120 103.287C120 95.4529 113.65 89.1025 105.815 89.1025C97.9817 89.1025 91.6306 95.4529 91.6306 103.287C91.6306 111.121 97.9817 117.472 105.815 117.472Z" fill="#744EAA"/>
<path d="M107.423 117.101C99.7934 115.325 95.0482 107.701 96.8242 100.071C98.1552 94.3536 102.771 90.2565 108.212 89.3088C100.863 88.043 93.7132 92.7148 92.0009 100.071C90.2249 107.701 94.9701 115.325 102.599 117.101C104.512 117.547 106.423 117.581 108.242 117.265C107.969 117.218 107.696 117.165 107.423 117.101Z" fill="#67449E"/>
<path d="M40.3257 46.4724C40.6784 46.5544 41.0239 46.6517 41.3638 46.7585C41.5028 46.1649 41.6813 45.5914 41.889 45.0347C27.6422 28.8388 9.92334 22.8802 3.49222 21.3223C2.13047 20.9925 0.815365 21.9464 0.703806 23.3375L0.00605504 32.0331C-0.0893376 33.2225 0.933966 34.22 2.11711 34.0828C16.8744 32.3731 30.5546 39.8889 39.1828 46.2593C39.5635 46.3155 39.9443 46.3836 40.3257 46.4724Z" fill="#93603E"/>
<path d="M34.8637 38.0413C26.3267 32.5584 14.6084 27.396 2.11734 28.8431C1.38303 28.9281 0.710835 28.5757 0.328796 28.0122L0.00605504 32.0332C-0.0893376 33.2225 0.933966 34.22 2.11711 34.0828C16.8744 32.3731 30.5546 39.8889 39.1828 46.2593C39.5632 46.3158 39.9443 46.3838 40.3254 46.4724C40.6784 46.5544 41.0236 46.6517 41.3635 46.7583C41.5025 46.1646 41.6811 45.5911 41.8887 45.0344C39.6157 42.4505 37.2539 40.128 34.8637 38.0413Z" fill="#7F573C"/>
<path d="M19.4691 73.4542C21.2753 71.2527 23.7105 69.6439 26.4356 68.8498C26.8767 69.3688 21.6353 64.1871 23.4224 56.509C24.6782 51.1141 28.8811 47.1749 33.9323 45.9913C27.2791 43.7947 17.7678 43.2094 7.80972 49.2407C6.94531 49.7643 6.76766 50.9463 7.45321 51.6888C8.84919 53.2013 11.3845 55.6346 14.8006 57.628C15.6959 58.1504 15.8173 59.3795 15.0434 60.0691C12.22 62.5849 9.60245 65.9112 7.48064 70.3011C7.04096 71.2107 7.53639 72.2999 8.51545 72.5493C10.6893 73.1026 15.0757 73.8353 19.4691 73.4542Z" fill="#3BBC56"/>
<path d="M13.6336 72.5492C12.6546 72.3001 12.1591 71.2107 12.5988 70.3011C14.7206 65.9111 17.3382 62.5848 20.1615 60.0692C20.9355 59.3797 20.814 58.1506 19.9187 57.6282C16.5026 55.6348 13.9674 53.2014 12.5714 51.689C11.8858 50.9465 12.0635 49.7645 12.9279 49.2409C17.7971 46.2917 22.5585 44.9274 26.9323 44.5571C21.2917 44.0752 14.6564 45.0943 7.80972 49.2409C6.94531 49.7645 6.76766 50.9465 7.45321 51.689C8.84919 53.2014 11.3845 55.6348 14.8006 57.6282C15.6959 58.1508 15.8173 59.3797 15.0434 60.0692C12.22 62.5851 9.60245 65.9114 7.48064 70.3011C7.04096 71.2107 7.53639 72.2998 8.51545 72.5492C10.6844 73.1017 15.0558 73.8317 19.4396 73.4563C17.0281 73.2739 14.9339 72.8804 13.6336 72.5492Z" fill="#30AA44"/>
<path d="M58.2619 36.2575C59.0639 36.444 59.8322 36.6984 60.5656 37.0084C62.3707 34.2088 65.1126 32.1575 68.2507 31.186C69.0535 25.585 67.3221 19.9501 66.4914 17.3459C66.1843 16.3832 65.0678 15.9534 64.1858 16.4463C59.9297 18.825 56.7646 21.6353 54.4208 24.603C53.7784 25.4165 52.5444 25.3682 51.9697 24.5057C49.7768 21.214 47.1975 18.8276 45.6049 17.5237C44.8228 16.8837 43.6537 17.131 43.1823 18.0248C37.6707 28.4794 39.1503 38.055 41.8208 44.5883C44.4025 38.3256 51.4498 34.6719 58.2619 36.2575Z" fill="#3BBC56"/>
<path d="M47.4729 19.1806C46.7751 18.5136 46.1348 17.9574 45.6049 17.5238C44.823 16.8837 43.6537 17.131 43.1823 18.0249C37.6707 28.4791 39.1503 38.0549 41.8208 44.5883C42.5818 42.7419 43.7336 41.1246 45.1507 39.7992C43.7779 34.0377 43.7683 26.8722 47.4729 19.1806Z" fill="#30AA44"/>
<path d="M72.0789 58.5439C79.9125 58.5439 86.2635 52.1932 86.2635 44.3592C86.2635 36.5253 79.9125 30.1746 72.0789 30.1746C64.2448 30.1746 57.894 36.5253 57.894 44.3592C57.894 52.1932 64.2448 58.5439 72.0789 58.5439Z" fill="#744EAA"/>
<path d="M73.6862 58.1742C66.0564 56.3983 61.3112 48.7735 63.0873 41.144C64.4183 35.4263 69.0336 31.3289 74.4748 30.3817C67.1261 29.1154 59.9766 33.7877 58.2642 41.144C56.4883 48.7735 61.2333 56.3981 68.8629 58.1742C70.7746 58.6193 72.6857 58.6544 74.5056 58.3379C74.232 58.2907 73.9591 58.2377 73.6862 58.1742Z" fill="#67449E"/>
<path d="M56.4878 104.604C64.3217 104.604 70.6724 98.2531 70.6724 90.4195C70.6724 82.5853 64.3217 76.2349 56.4878 76.2349C48.6538 76.2349 42.3031 82.5853 42.3031 90.4195C42.3031 98.2531 48.6538 104.604 56.4878 104.604Z" fill="#744EAA"/>
<path d="M58.0963 104.234C50.4668 102.458 45.7215 94.8336 47.4977 87.2044C48.8287 81.4862 53.4443 77.389 58.8852 76.4421C51.5365 75.1755 44.387 79.848 42.6746 87.2044C40.8987 94.8336 45.6437 102.458 53.2732 104.234C55.1851 104.679 57.0964 104.714 58.9157 104.398C58.6429 104.351 58.3696 104.298 58.0963 104.234Z" fill="#67449E"/>
<path d="M29.8459 96.4477C37.6798 96.4477 44.0306 90.0966 44.0306 82.2631C44.0306 74.429 37.6798 68.0784 29.8459 68.0784C22.0119 68.0784 15.6613 74.429 15.6613 82.2631C15.6613 90.0966 22.0119 96.4477 29.8459 96.4477Z" fill="#744EAA"/>
<path d="M31.4541 96.0767C23.8246 94.3007 19.0794 86.6763 20.8555 79.0463C22.1865 73.3288 26.8021 69.2314 32.243 68.2843C24.8943 67.0179 17.7447 71.6903 16.0324 79.0463C14.2565 86.6763 19.0015 94.3007 26.6311 96.0767C28.5429 96.5217 30.4543 96.5567 32.2735 96.2406C32.0005 96.1933 31.7274 96.1405 31.4541 96.0767Z" fill="#67449E"/>
<path d="M54.669 63.5644C62.503 63.5644 68.8539 57.2137 68.8539 49.3797C68.8539 41.5457 62.503 35.1951 54.669 35.1951C46.835 35.1951 40.4844 41.5457 40.4844 49.3797C40.4844 57.2137 46.835 63.5644 54.669 63.5644Z" fill="#553788"/>
<path d="M56.2819 63.1946C48.6525 61.4187 43.9072 53.7938 45.6833 46.1643C47.0141 40.4476 51.6286 36.3507 57.068 35.4026C49.7181 34.1341 42.5666 38.8069 40.8539 46.1643C39.0781 53.7938 43.8231 61.4184 51.4526 63.1946C53.3653 63.6399 55.2779 63.6749 57.0979 63.3575C56.826 63.3106 56.5541 63.2579 56.2819 63.1946Z" fill="#462E7A"/>
<path d="M74.8793 77.2875C82.6539 77.2875 88.9563 70.9848 88.9563 63.2104C88.9563 55.4359 82.6539 49.1335 74.8793 49.1335C67.1051 49.1335 60.8027 55.4359 60.8027 63.2104C60.8027 70.9848 67.1051 77.2875 74.8793 77.2875Z" fill="#9266CC"/>
<path d="M76.5168 76.9207C68.9444 75.1577 64.2347 67.5901 65.9972 60.0175C67.3168 54.349 71.8896 50.2853 77.2814 49.3392C69.9792 48.0678 62.8694 52.7081 61.1678 60.0175C59.4051 67.5901 64.115 75.1577 71.6873 76.9207C73.5915 77.3637 75.4951 77.3973 77.3067 77.0791C77.0434 77.0332 76.7801 76.9817 76.5168 76.9207Z" fill="#7B54BA"/>
<path d="M96.6109 96.8861C104.386 96.8861 110.688 90.5837 110.688 82.809C110.688 75.0348 104.386 68.7324 96.6109 68.7324C88.837 68.7324 82.5345 75.0348 82.5345 82.809C82.5345 90.5837 88.837 96.8861 96.6109 96.8861Z" fill="#9266CC"/>
<path d="M98.2484 96.5199C90.676 94.7569 85.9659 87.1894 87.7288 79.617C89.0481 73.9483 93.6205 69.8847 99.0129 68.9385C91.7108 67.6672 84.6006 72.3074 82.8993 79.617C81.1364 87.1894 85.8465 94.7569 93.4189 96.5199C95.3231 96.9628 97.2266 96.9964 99.0376 96.6783C98.775 96.633 98.5117 96.5809 98.2484 96.5199Z" fill="#7B54BA"/>
<path d="M82.97 115.512C90.7446 115.512 97.047 109.21 97.047 101.436C97.047 93.661 90.7446 87.3586 82.97 87.3586C75.1961 87.3586 68.8937 93.661 68.8937 101.436C68.8937 109.21 75.1961 115.512 82.97 115.512Z" fill="#9266CC"/>
<path d="M84.6082 115.146C77.0358 113.384 72.3257 105.816 74.0886 98.2429C75.408 92.5748 79.9803 88.5113 85.3728 87.565C78.0706 86.2937 70.9604 90.9339 69.2592 98.2429C67.4963 105.816 72.2064 113.384 79.7787 115.146C81.6829 115.589 83.5865 115.622 85.3981 115.305C85.1348 115.259 84.8715 115.208 84.6082 115.146Z" fill="#7B54BA"/>
<path d="M36.6499 73.7787C44.4244 73.7787 50.7268 67.4762 50.7268 59.7018C50.7268 51.9274 44.4244 45.625 36.6499 45.625C28.8755 45.625 22.5731 51.9274 22.5731 59.7018C22.5731 67.4762 28.8755 73.7787 36.6499 73.7787Z" fill="#9266CC"/>
<path d="M38.2868 73.4119C30.7142 71.6491 26.0046 64.0815 27.7671 56.5089C29.0867 50.8404 33.6592 46.7768 39.0513 45.8306C31.7492 44.5593 24.6393 49.1996 22.9377 56.5089C21.175 64.0815 25.8849 71.6491 33.4574 73.4119C35.3615 73.8551 37.2652 73.8884 39.0764 73.5706C38.8132 73.5249 38.55 73.4733 38.2868 73.4119Z" fill="#7B54BA"/>
<path d="M53.6681 87.6377C61.4426 87.6377 67.745 81.3353 67.745 73.5607C67.745 65.7863 61.4426 59.4839 53.6681 59.4839C45.8937 59.4839 39.5913 65.7863 39.5913 73.5607C39.5913 81.3353 45.8937 87.6377 53.6681 87.6377Z" fill="#AA8DD8"/>
<path d="M55.2465 87.271C47.674 85.508 42.9641 77.9404 44.7269 70.368C46.0464 64.6996 50.6187 60.6359 56.0108 59.6897C48.7087 58.4184 41.5988 63.0587 39.8974 70.368C38.1347 77.9404 42.8446 85.508 50.4171 87.271C52.3212 87.7139 54.2246 87.7475 56.0359 87.43C55.773 87.3841 55.5097 87.3327 55.2465 87.271Z" fill="#987FC9"/>
<path d="M75.6411 96.8861C83.4158 96.8861 89.7182 90.5837 89.7182 82.809C89.7182 75.0348 83.4158 68.7324 75.6411 68.7324C67.8669 68.7324 61.5645 75.0348 61.5645 82.809C61.5645 90.5837 67.8669 96.8861 75.6411 96.8861Z" fill="#AA8DD8"/>
<path d="M77.2175 96.5199C69.6452 94.7569 64.9353 87.1894 66.6981 79.617C68.0176 73.9483 72.5896 69.8847 77.9821 68.9385C70.6799 67.6672 63.57 72.3074 61.8686 79.617C60.1059 87.1894 64.8158 94.7569 72.388 96.5199C74.2923 96.9628 76.1958 96.9964 78.0068 96.6783C77.7442 96.633 77.4808 96.5809 77.2175 96.5199Z" fill="#987FC9"/>
</g>
<defs>
<clipPath id="clip0">
<rect width="120" height="120" fill="white"/>
</clipPath>
</defs>
</svg>
