<svg width="120" height="120" viewBox="0 0 120 120" fill="none" xmlns="http://www.w3.org/2000/svg">
<path d="M88.9549 1.45234C88.9014 0.63661 88.224 0 87.4052 0H32.5941C31.7759 0 31.0982 0.63661 31.0449 1.45234L28.3339 42.8368L39.0858 63.7147C39.0858 63.7147 79.9789 63.2241 79.9789 62.7332C79.9789 62.2423 91.6656 42.8368 91.6656 42.8368L88.9549 1.45234Z" fill="#DFF6FD"/>
<path d="M40.3636 42.1613L43.0531 0H32.5941C31.7759 0 31.0982 0.63661 31.0449 1.45234L28.3339 42.8368L39.0858 63.7147C39.0858 63.7147 42.0944 63.6787 46.4787 63.6162C42.1994 57.6595 39.8529 50.1719 40.3636 42.1613Z" fill="#C8EFFE"/>
<path d="M70.813 74.843L64.7625 82.5113C64.703 82.5868 64.6705 82.6807 64.6705 82.7767V110.137L89.6783 119.17C90.1295 119.332 90.0123 120 89.5336 120H30.7087C30.2294 120 30.1128 119.332 30.5635 119.17L55.5716 110.137V82.7767C55.5716 82.6807 55.5392 82.5874 55.4796 82.5113L49.4289 74.843L40.1238 60.1392L82.3357 58.5071L70.813 74.843Z" fill="#DFF6FD"/>
<path d="M49.4287 74.8431L54.3311 81.0563C56.1869 81.3409 58.0803 81.4856 59.9998 81.4856C62.0159 81.4856 64.0025 81.3237 65.9472 81.0097L70.813 74.8431L82.335 58.5066L40.1233 60.1388L49.4287 74.8431Z" fill="#C8EFFE"/>
<path d="M91.6656 42.8367C92.8642 61.1387 78.3428 76.645 59.9998 76.645C41.6568 76.645 27.1357 61.1387 28.3339 42.8367L30.0888 44.0082C38.6625 49.7256 49.5502 50.7035 59.005 46.6031L67.6053 42.8754C75.2763 39.5472 83.9828 39.5326 91.6656 42.8367Z" fill="#331B21"/>
<path d="M40.5479 48.4301C36.8672 47.6388 33.3142 46.1591 30.0888 44.0085L28.3339 42.8369C27.1357 61.1388 41.6568 76.645 59.9998 76.645C61.8598 76.645 63.6936 76.4832 65.4626 76.1774C52.3171 73.3351 42.2401 62.1506 40.5479 48.4301Z" fill="#230B11"/>
</svg>
