<svg width="120px" height="19px" viewBox="0 0 120 19" fill="none" xmlns="http://www.w3.org/2000/svg">
<path d="M0.410156 0.667969H6.19922V1.54688H5.78906C5.17969 1.54688 4.78906 1.59375 4.61719 1.6875C4.45312 1.78125 4.37109 1.92969 4.37109 2.13281C4.37109 2.27344 4.42969 2.49609 4.54688 2.80078L4.61719 3.02344L8.14453 14.0273L11.2383 3.86719C10.8789 2.71094 10.6016 2.03516 10.4062 1.83984C10.2188 1.64453 9.83984 1.54688 9.26953 1.54688H8.21484V0.667969H15.4453V1.54688H14.6953C14.0391 1.54688 13.6133 1.60156 13.418 1.71094C13.2227 1.8125 13.125 1.96875 13.125 2.17969C13.125 2.34375 13.1484 2.49609 13.1953 2.63672L16.793 14.0273L19.7461 4.17188C19.8633 3.78906 19.9219 3.42188 19.9219 3.07031C19.9219 2.54688 19.8008 2.16406 19.5586 1.92188C19.3242 1.67188 18.9688 1.54688 18.4922 1.54688H17.9531V0.667969H23.3906V1.54688C22.9141 1.60937 22.5352 1.72656 22.2539 1.89844C21.9727 2.0625 21.7266 2.30078 21.5156 2.61328C21.3125 2.92578 21.1055 3.44531 20.8945 4.17188L16.6289 18.4102H15.8086L11.8008 5.69531L8.00391 18.4102H7.125L2.25 3.02344C2.05469 2.42188 1.83203 2.02734 1.58203 1.83984C1.33984 1.64453 0.949219 1.54688 0.410156 1.54688V0.667969ZM26.2734 0.46875C26.625 0.46875 26.9336 0.601562 27.1992 0.867188C27.4648 1.13281 27.5977 1.44531 27.5977 1.80469C27.5977 2.15625 27.4688 2.46094 27.2109 2.71875C26.9531 2.97656 26.6445 3.10547 26.2852 3.10547C25.9258 3.10547 25.6133 2.97656 25.3477 2.71875C25.0898 2.45312 24.9609 2.14453 24.9609 1.79297C24.9609 1.44141 25.0938 1.13281 25.3594 0.867188C25.625 0.601562 25.9297 0.46875 26.2734 0.46875ZM23.2383 7.01953L27.5977 6.89062V16.3359C27.5977 16.5938 27.6602 16.7773 27.7852 16.8867C27.9648 17.043 28.1914 17.1211 28.4648 17.1211H29.707V18H23.4727V17.1211H24.6328C24.9766 17.1211 25.2266 17.0391 25.3828 16.875C25.5469 16.7031 25.6289 16.457 25.6289 16.1367V9.22266C25.6289 8.78516 25.5039 8.45703 25.2539 8.23828C25.0039 8.01172 24.6328 7.89844 24.1406 7.89844H23.2383V7.01953ZM31.0195 7.01953L34.6641 6.79688C34.8125 7.48438 34.9219 8.28906 34.9922 9.21094C35.4844 8.41406 36.0625 7.81641 36.7266 7.41797C37.3984 7.01953 38.1562 6.82031 39 6.82031C39.7266 6.82031 40.3359 6.96484 40.8281 7.25391C41.3203 7.53516 41.7148 7.98438 42.0117 8.60156C42.3086 9.21875 42.457 9.91016 42.457 10.6758V16.0195C42.457 16.418 42.5469 16.7031 42.7266 16.875C42.9062 17.0391 43.207 17.1211 43.6289 17.1211H44.4023V18H38.6133V17.1211H39.1641C39.6797 17.1211 40.0391 17.0391 40.2422 16.875C40.4453 16.7109 40.5469 16.4648 40.5469 16.1367V11.4375C40.5469 10.4141 40.3906 9.65625 40.0781 9.16406C39.6406 8.46094 38.9766 8.10938 38.0859 8.10938C37.2031 8.10938 36.4648 8.46484 35.8711 9.17578C35.2852 9.88672 34.9922 10.8125 34.9922 11.9531V16.0195C34.9922 16.418 35.082 16.7031 35.2617 16.875C35.4492 17.0391 35.7539 17.1211 36.1758 17.1211H36.9375V18H31.125V17.1211H31.8867C32.2695 17.1211 32.5586 17.043 32.7539 16.8867C32.957 16.7305 33.0586 16.5352 33.0586 16.3008V9.21094C33.0586 8.74219 32.9297 8.38672 32.6719 8.14453C32.4219 7.90234 32.0586 7.78125 31.582 7.78125H31.0195V7.01953ZM55.9922 12.5859H48.1289C48.168 14.2578 48.4805 15.4375 49.0664 16.125C49.7383 16.8984 50.5938 17.2852 51.6328 17.2852C53.1641 17.2852 54.3945 16.4141 55.3242 14.6719L56.0859 15C54.9453 17.2188 53.2969 18.3281 51.1406 18.3281C49.6719 18.3281 48.4336 17.7969 47.4258 16.7344C46.4258 15.6719 45.9258 14.3125 45.9258 12.6562C45.9258 10.875 46.418 9.4375 47.4023 8.34375C48.3945 7.24219 49.6133 6.69141 51.0586 6.69141C52.1211 6.69141 53.0391 6.96484 53.8125 7.51172C54.5859 8.05859 55.168 8.84375 55.5586 9.86719C55.832 10.5859 55.9766 11.4922 55.9922 12.5859ZM48.1289 11.7539H52.8867C53.168 11.7539 53.3867 11.6602 53.543 11.4727C53.6992 11.2773 53.7773 10.9492 53.7773 10.4883C53.7773 9.62891 53.5078 8.89844 52.9688 8.29688C52.4375 7.69531 51.8086 7.39453 51.082 7.39453C50.2695 7.39453 49.5781 7.75781 49.0078 8.48438C48.4453 9.21094 48.1523 10.3008 48.1289 11.7539ZM64.6406 0.667969H78.7031L79.043 7.21875H78.2344C77.7031 3.36719 76.3125 1.44141 74.0625 1.44141C73.6094 1.44141 73.2969 1.51953 73.125 1.67578C72.9609 1.83203 72.8789 2.08984 72.8789 2.44922V16.3008C72.8789 16.582 72.9609 16.7891 73.125 16.9219C73.2891 17.0547 73.5586 17.1211 73.9336 17.1211H75.6797V18H67.6289V17.1211H69.6211C69.8867 17.1211 70.0898 17.0547 70.2305 16.9219C70.3711 16.7891 70.4414 16.6133 70.4414 16.3945V2.34375C70.4414 2.04688 70.3516 1.82422 70.1719 1.67578C69.9922 1.51953 69.7031 1.44141 69.3047 1.44141C68.1719 1.44141 67.2266 1.97656 66.4688 3.04688C65.8438 3.92969 65.3945 5.32031 65.1211 7.21875H64.2656L64.6406 0.667969ZM82.5938 0.46875C82.9453 0.46875 83.2539 0.601562 83.5195 0.867188C83.7852 1.13281 83.918 1.44531 83.918 1.80469C83.918 2.15625 83.7891 2.46094 83.5312 2.71875C83.2734 2.97656 82.9648 3.10547 82.6055 3.10547C82.2461 3.10547 81.9336 2.97656 81.668 2.71875C81.4102 2.45312 81.2812 2.14453 81.2812 1.79297C81.2812 1.44141 81.4141 1.13281 81.6797 0.867188C81.9453 0.601562 82.25 0.46875 82.5938 0.46875ZM79.5586 7.01953L83.918 6.89062V16.3359C83.918 16.5938 83.9805 16.7773 84.1055 16.8867C84.2852 17.043 84.5117 17.1211 84.7852 17.1211H86.0273V18H79.793V17.1211H80.9531C81.2969 17.1211 81.5469 17.0391 81.7031 16.875C81.8672 16.7031 81.9492 16.457 81.9492 16.1367V9.22266C81.9492 8.78516 81.8242 8.45703 81.5742 8.23828C81.3242 8.01172 80.9531 7.89844 80.4609 7.89844H79.5586V7.01953ZM88.0195 7.01953L91.1602 6.82031C91.332 7.64062 91.4453 8.42188 91.5 9.16406C92.0938 8.30469 92.6875 7.69922 93.2812 7.34766C93.875 6.99609 94.5273 6.82031 95.2383 6.82031C95.9961 6.82031 96.6211 7.01953 97.1133 7.41797C97.6055 7.81641 97.9844 8.46484 98.25 9.36328C98.7734 8.51172 99.3555 7.875 99.9961 7.45312C100.637 7.03125 101.336 6.82031 102.094 6.82031C103.094 6.82031 103.844 7.11719 104.344 7.71094C104.984 8.49219 105.305 9.5 105.305 10.7344V16.1836C105.305 16.5117 105.387 16.7344 105.551 16.8516C105.77 17.0312 106.094 17.1211 106.523 17.1211H107.074V18H101.555V17.1211H102.105C102.574 17.1211 102.902 17.043 103.09 16.8867C103.277 16.7305 103.371 16.4961 103.371 16.1836V10.7344C103.371 9.92188 103.172 9.29297 102.773 8.84766C102.375 8.40234 101.852 8.17969 101.203 8.17969C100.711 8.17969 100.266 8.3125 99.8672 8.57812C99.4688 8.83594 99.1562 9.20703 98.9297 9.69141C98.5938 10.3867 98.4258 10.9766 98.4258 11.4609V16.1836C98.4258 16.5039 98.5117 16.7422 98.6836 16.8984C98.8555 17.0469 99.1211 17.1211 99.4805 17.1211H100.23V18H94.6406V17.1211H95.2734C95.6719 17.1211 95.9688 17.043 96.1641 16.8867C96.3594 16.7305 96.457 16.5312 96.457 16.2891V11.2266C96.457 10.1562 96.2656 9.37891 95.8828 8.89453C95.5078 8.41016 95 8.16797 94.3594 8.16797C93.5312 8.16797 92.8945 8.44922 92.4492 9.01172C91.8164 9.80859 91.5 10.7383 91.5 11.8008V16.1836C91.5 16.5195 91.5742 16.75 91.7227 16.875C91.9336 17.0391 92.2617 17.1211 92.707 17.1211H93.2695V18H87.7383V17.1211H88.5703C88.8828 17.1211 89.1211 17.043 89.2852 16.8867C89.457 16.7305 89.543 16.5312 89.543 16.2891V9.09375C89.543 8.69531 89.4414 8.39844 89.2383 8.20312C89.0352 8.00781 88.6289 7.88281 88.0195 7.82812V7.01953ZM118.992 12.5859H111.129C111.168 14.2578 111.48 15.4375 112.066 16.125C112.738 16.8984 113.594 17.2852 114.633 17.2852C116.164 17.2852 117.395 16.4141 118.324 14.6719L119.086 15C117.945 17.2188 116.297 18.3281 114.141 18.3281C112.672 18.3281 111.434 17.7969 110.426 16.7344C109.426 15.6719 108.926 14.3125 108.926 12.6562C108.926 10.875 109.418 9.4375 110.402 8.34375C111.395 7.24219 112.613 6.69141 114.059 6.69141C115.121 6.69141 116.039 6.96484 116.812 7.51172C117.586 8.05859 118.168 8.84375 118.559 9.86719C118.832 10.5859 118.977 11.4922 118.992 12.5859ZM111.129 11.7539H115.887C116.168 11.7539 116.387 11.6602 116.543 11.4727C116.699 11.2773 116.777 10.9492 116.777 10.4883C116.777 9.62891 116.508 8.89844 115.969 8.29688C115.438 7.69531 114.809 7.39453 114.082 7.39453C113.27 7.39453 112.578 7.75781 112.008 8.48438C111.445 9.21094 111.152 10.3008 111.129 11.7539Z" fill="#EABC78"/>
</svg>
