<svg xmlns="http://www.w3.org/2000/svg" xmlns:xlink="http://www.w3.org/1999/xlink" width="15px" height="14px" viewBox="0 0 15 14" version="1.1">
<g id="surface1">
<path style=" stroke:none;fill-rule:nonzero;fill:red;fill-opacity:1;" d="M 8.878906 7.015625 L 14.722656 1.5625 C 15.105469 1.207031 15.105469 0.632812 14.722656 0.277344 C 14.34375 -0.078125 13.730469 -0.078125 13.347656 0.277344 L 7.503906 5.730469 L 1.660156 0.277344 C 1.28125 -0.078125 0.664062 -0.078125 0.285156 0.277344 C -0.09375 0.632812 -0.09375 1.207031 0.285156 1.5625 L 6.128906 7.015625 L 0.285156 12.46875 C -0.09375 12.824219 -0.09375 13.398438 0.285156 13.753906 C 0.476562 13.929688 0.722656 14.019531 0.972656 14.019531 C 1.222656 14.019531 1.46875 13.929688 1.660156 13.753906 L 7.503906 8.300781 L 13.347656 13.753906 C 13.539062 13.929688 13.789062 14.019531 14.035156 14.019531 C 14.285156 14.019531 14.535156 13.929688 14.722656 13.753906 C 15.105469 13.398438 15.105469 12.824219 14.722656 12.46875 Z M 8.878906 7.015625 "/>
</g>
</svg>
