<svg xmlns="http://www.w3.org/2000/svg" xmlns:xlink="http://www.w3.org/1999/xlink" width="30px" height="30px" viewBox="0 0 30 30" version="1.1">
<g id="surface1">
<path style=" stroke:none;fill-rule:nonzero;fill:#fff;fill-opacity:1;" d="M 5 5.019531 C 5 6.398438 3.878906 7.519531 2.5 7.519531 C 1.121094 7.519531 0 6.398438 0 5.019531 C 0 3.640625 1.121094 2.519531 2.5 2.519531 C 3.878906 2.519531 5 3.640625 5 5.019531 Z M 5 5.019531 "/>
<path style=" stroke:none;fill-rule:nonzero;fill:#fff;fill-opacity:1;" d="M 5 15.019531 C 5 16.398438 3.878906 17.519531 2.5 17.519531 C 1.121094 17.519531 0 16.398438 0 15.019531 C 0 13.640625 1.121094 12.519531 2.5 12.519531 C 3.878906 12.519531 5 13.640625 5 15.019531 Z M 5 15.019531 "/>
<path style=" stroke:none;fill-rule:nonzero;fill:#fff;fill-opacity:1;" d="M 5 25.019531 C 5 26.398438 3.878906 27.519531 2.5 27.519531 C 1.121094 27.519531 0 26.398438 0 25.019531 C 0 23.640625 1.121094 22.519531 2.5 22.519531 C 3.878906 22.519531 5 23.640625 5 25.019531 Z M 5 25.019531 "/>
<path style=" stroke:none;fill-rule:nonzero;fill:#fff;fill-opacity:1;" d="M 10 6.269531 L 28.75 6.269531 C 29.441406 6.269531 30 5.710938 30 5.019531 C 30 4.328125 29.441406 3.769531 28.75 3.769531 L 10 3.769531 C 9.308594 3.769531 8.75 4.328125 8.75 5.019531 C 8.75 5.710938 9.308594 6.269531 10 6.269531 Z M 10 6.269531 "/>
<path style=" stroke:none;fill-rule:nonzero;fill:#fff;fill-opacity:1;" d="M 28.75 13.769531 L 10 13.769531 C 9.308594 13.769531 8.75 14.328125 8.75 15.019531 C 8.75 15.710938 9.308594 16.269531 10 16.269531 L 28.75 16.269531 C 29.441406 16.269531 30 15.710938 30 15.019531 C 30 14.328125 29.441406 13.769531 28.75 13.769531 Z M 28.75 13.769531 "/>
<path style=" stroke:none;fill-rule:nonzero;fill:#fff;fill-opacity:1;" d="M 28.75 23.769531 L 10 23.769531 C 9.308594 23.769531 8.75 24.328125 8.75 25.019531 C 8.75 25.710938 9.308594 26.269531 10 26.269531 L 28.75 26.269531 C 29.441406 26.269531 30 25.710938 30 25.019531 C 30 24.328125 29.441406 23.769531 28.75 23.769531 Z M 28.75 23.769531 "/>
</g>
</svg>
