<svg width="30" height="30" viewBox="0 0 30 30" fill="none" xmlns="http://www.w3.org/2000/svg">
<path d="M15 0.234375C6.86719 0.234375 0.234375 6.86719 0.234375 15C0.234375 23.1328 6.86719 29.7656 15 29.7656C23.1328 29.7656 29.7656 23.1328 29.7656 15C29.7656 6.86719 23.1328 0.234375 15 0.234375ZM15 27.8906C7.89844 27.8906 2.10938 22.1016 2.10938 15C2.10938 7.89844 7.89844 2.10938 15 2.10938C22.1016 2.10938 27.8906 7.89844 27.8906 15C27.8906 22.1016 22.1016 27.8906 15 27.8906Z" fill="#868686"/>
<path d="M15.9375 12.7734H14.0625V22.1484H15.9375V12.7734Z" fill="#868686"/>
<path d="M15.9375 8.32031H14.0625V10.1953H15.9375V8.32031Z" fill="#868686"/>
</svg>
